<svg id="svg" version="1.1" xmlns="http://www.w3.org/2000/svg" xmlns:xlink="http://www.w3.org/1999/xlink" width="70" height="70" viewBox="0, 0, 400,400"><g id="svgg"><path id="path0" d="M18.985 19.700 C 18.881 19.975,18.841 101.290,18.898 200.400 L 19.000 380.600 199.900 380.700 L 380.800 380.801 380.800 200.000 L 380.800 19.200 199.987 19.200 C 55.705 19.200,19.137 19.301,18.985 19.700 M370.200 200.000 L 370.200 369.800 200.000 369.800 L 29.800 369.800 29.698 200.400 C 29.641 107.230,29.681 30.775,29.785 30.500 C 29.937 30.100,64.207 30.019,200.088 30.100 L 370.200 30.200 370.200 200.000 M67.682 74.878 C 66.981 75.579,66.997 93.021,67.700 93.476 C 67.975 93.654,76.703 93.890,87.096 94.000 L 105.993 94.200 105.064 96.000 C 104.553 96.990,103.745 98.475,103.268 99.300 C 102.790 100.125,102.040 101.430,101.600 102.200 C 101.160 102.970,100.440 104.230,100.000 105.000 C 97.820 108.815,97.414 109.530,96.483 111.200 C 95.930 112.190,92.293 118.580,88.400 125.400 C 84.507 132.220,80.826 138.700,80.219 139.800 C 79.613 140.900,78.981 141.980,78.816 142.200 C 78.650 142.420,77.976 143.590,77.317 144.800 C 76.657 146.010,75.731 147.675,75.259 148.500 C 74.787 149.325,74.040 150.630,73.600 151.400 C 73.160 152.170,72.440 153.430,72.000 154.200 C 71.560 154.970,70.840 156.230,70.400 157.000 C 69.379 158.787,68.502 160.347,66.661 163.653 L 65.183 166.306 65.292 174.653 L 65.400 183.000 99.200 183.000 L 133.000 183.000 133.000 173.600 L 133.000 164.200 111.500 164.097 C 97.445 164.029,90.000 163.854,90.000 163.591 C 90.000 163.371,94.252 155.767,99.450 146.695 C 104.647 137.623,109.443 129.210,110.108 128.000 C 110.772 126.790,111.450 125.620,111.615 125.400 C 111.780 125.180,112.294 124.325,112.757 123.500 C 113.221 122.675,113.960 121.370,114.400 120.600 C 114.840 119.830,115.560 118.570,116.000 117.800 C 116.440 117.030,117.160 115.770,117.600 115.000 C 118.040 114.230,118.760 112.970,119.200 112.200 C 119.640 111.430,120.360 110.170,120.800 109.400 C 121.240 108.630,121.960 107.370,122.400 106.600 C 124.380 103.135,124.762 102.476,125.944 100.482 C 126.635 99.318,127.200 98.301,127.200 98.223 C 127.200 98.145,127.923 96.891,128.807 95.436 L 130.415 92.790 130.307 83.695 L 130.200 74.600 99.182 74.498 C 75.389 74.419,68.052 74.508,67.682 74.878 M146.674 74.660 C 146.523 74.810,146.400 99.293,146.400 129.067 L 146.400 183.200 156.400 183.200 L 166.400 183.200 166.400 160.400 L 166.400 137.600 185.557 137.600 C 202.657 137.600,204.740 137.668,204.957 138.233 C 205.091 138.581,205.200 148.841,205.200 161.033 L 205.200 183.200 215.201 183.200 L 225.203 183.200 225.101 128.900 L 225.000 74.600 215.200 74.600 L 205.400 74.600 205.200 96.400 L 205.000 118.200 185.703 118.304 L 166.407 118.408 166.303 96.504 L 166.200 74.600 156.574 74.493 C 151.279 74.434,146.824 74.509,146.674 74.660 M237.060 74.702 C 236.847 75.048,237.173 75.738,241.126 83.302 C 242.707 86.329,245.193 91.099,246.649 93.902 C 248.106 96.706,250.243 100.800,251.399 103.000 C 252.555 105.200,254.715 109.340,256.199 112.200 C 257.683 115.060,259.844 119.200,261.000 121.400 C 263.679 126.497,268.187 135.166,270.559 139.782 L 272.400 143.364 272.400 163.282 L 272.400 183.200 282.386 183.200 L 292.372 183.200 292.486 162.900 L 292.600 142.600 293.644 140.800 C 294.218 139.810,296.178 136.120,297.999 132.600 C 299.821 129.080,302.072 124.760,303.001 123.000 C 303.930 121.240,305.997 117.280,307.594 114.200 C 309.191 111.120,311.444 106.800,312.600 104.600 C 313.756 102.400,315.918 98.260,317.403 95.400 C 321.779 86.976,325.223 80.376,326.660 77.664 C 328.468 74.249,328.904 74.400,317.238 74.400 C 306.682 74.400,305.600 74.558,305.600 76.103 C 305.600 76.235,304.184 79.281,302.454 82.872 C 300.724 86.462,298.294 91.515,297.054 94.100 C 295.814 96.685,293.786 100.915,292.546 103.500 C 291.306 106.085,288.908 111.080,287.216 114.600 C 285.524 118.120,283.885 121.585,283.572 122.300 C 282.706 124.284,282.199 123.916,280.262 119.900 C 278.435 116.109,274.709 108.369,270.105 98.800 C 268.677 95.830,266.203 90.700,264.608 87.400 C 263.014 84.100,261.115 80.140,260.390 78.600 C 258.233 74.025,259.378 74.400,247.562 74.400 C 241.889 74.400,237.163 74.536,237.060 74.702 M73.074 225.060 C 72.923 225.210,72.800 249.693,72.800 279.467 L 72.800 333.600 82.800 333.600 L 92.800 333.600 92.800 310.200 C 92.800 297.330,92.935 286.807,93.100 286.815 C 93.265 286.823,94.480 288.377,95.800 290.268 C 97.120 292.159,99.010 294.829,100.000 296.202 C 100.990 297.575,103.330 300.907,105.200 303.607 C 107.070 306.307,109.331 309.525,110.224 310.758 C 111.769 312.891,114.002 316.061,120.470 325.300 C 122.049 327.555,124.051 330.345,124.919 331.500 L 126.497 333.600 138.449 333.600 C 145.022 333.600,150.400 333.502,150.400 333.382 C 150.400 333.262,148.567 330.697,146.327 327.682 C 144.087 324.667,140.790 320.220,139.002 317.800 C 137.213 315.380,134.153 311.240,132.200 308.600 C 127.496 302.240,122.775 295.851,118.532 290.100 C 116.624 287.515,114.050 284.050,112.811 282.400 C 109.710 278.268,109.731 278.491,112.140 275.335 C 117.793 267.929,121.114 263.582,122.788 261.400 C 123.800 260.080,125.792 257.470,127.214 255.600 C 128.636 253.730,129.891 252.110,130.002 252.000 C 130.114 251.890,131.361 250.270,132.774 248.400 C 134.187 246.530,136.178 243.920,137.198 242.600 C 138.218 241.280,140.565 238.220,142.412 235.800 C 144.260 233.380,146.799 230.055,148.055 228.411 C 149.310 226.768,150.251 225.283,150.145 225.111 C 149.800 224.553,127.036 224.733,126.332 225.300 C 125.991 225.575,125.101 226.676,124.356 227.747 C 123.610 228.818,122.323 230.618,121.496 231.747 C 120.669 232.876,119.102 235.060,118.013 236.600 C 116.925 238.140,113.499 242.910,110.400 247.200 C 107.301 251.490,103.875 256.260,102.787 257.800 C 101.698 259.340,100.131 261.525,99.304 262.657 C 98.477 263.788,96.833 266.083,95.650 267.757 C 94.468 269.430,93.344 270.800,93.153 270.800 C 92.963 270.800,92.760 260.495,92.703 247.900 L 92.600 225.000 82.974 224.893 C 77.679 224.834,73.224 224.909,73.074 225.060 M164.274 225.060 C 164.123 225.210,164.000 249.693,164.000 279.467 L 164.000 333.600 174.001 333.600 L 184.003 333.600 183.901 279.300 L 183.800 225.000 174.174 224.893 C 168.879 224.834,164.424 224.909,164.274 225.060 M205.299 225.127 C 204.900 225.383,204.818 236.510,204.899 279.425 L 205.000 333.400 215.000 333.400 L 225.000 333.400 225.103 310.300 C 225.220 284.251,225.023 285.482,228.295 290.309 C 229.447 292.009,231.473 294.930,232.796 296.800 C 234.119 298.670,236.273 301.730,237.581 303.600 C 238.889 305.470,241.050 308.530,242.382 310.400 C 244.783 313.769,247.384 317.461,252.526 324.800 C 253.990 326.890,255.963 329.680,256.911 331.000 L 258.634 333.400 270.517 333.506 C 279.892 333.590,282.398 333.505,282.389 333.106 C 282.383 332.828,280.306 329.810,277.773 326.400 C 271.646 318.152,268.931 314.488,263.991 307.800 C 261.715 304.720,258.357 300.175,256.527 297.700 C 254.697 295.225,251.637 291.085,249.726 288.500 C 247.815 285.915,245.453 282.720,244.477 281.400 C 242.205 278.326,242.143 278.133,243.092 277.080 C 243.884 276.200,245.595 273.989,250.428 267.600 C 251.843 265.730,253.180 263.998,253.400 263.751 C 253.620 263.503,255.330 261.276,257.200 258.802 C 259.070 256.327,261.410 253.266,262.400 252.000 C 263.390 250.734,265.730 247.674,267.600 245.200 C 269.470 242.726,271.810 239.666,272.800 238.400 C 273.790 237.134,276.130 234.073,278.000 231.598 C 279.870 229.124,281.625 226.865,281.900 226.578 C 283.531 224.879,283.035 224.800,270.700 224.800 L 259.000 224.800 257.982 226.100 C 257.422 226.815,254.542 230.786,251.582 234.925 C 248.622 239.063,245.523 243.383,244.696 244.525 C 243.869 245.666,242.302 247.860,241.213 249.400 C 233.041 260.962,226.380 270.076,225.802 270.486 C 225.535 270.676,225.333 263.114,225.200 247.886 L 225.000 225.000 215.400 224.902 C 210.120 224.848,205.574 224.949,205.299 225.127 M296.274 225.060 C 296.123 225.210,296.000 249.693,296.000 279.467 L 296.000 333.600 306.001 333.600 L 316.003 333.600 315.901 279.300 L 315.800 225.000 306.174 224.893 C 300.879 224.834,296.424 224.909,296.274 225.060 " stroke="none" fill="#fafafa" fill-rule="evenodd"></path><path id="path1" d="M0.000 200.000 L 0.000 400.000 200.000 400.000 L 400.000 400.000 400.000 200.000 L 400.000 0.000 200.000 0.000 L 0.000 0.000 0.000 200.000 M380.800 200.000 L 380.800 380.801 199.900 380.700 L 19.000 380.600 18.898 200.400 C 18.841 101.290,18.881 19.975,18.985 19.700 C 19.137 19.301,55.705 19.200,199.987 19.200 L 380.800 19.200 380.800 200.000 M29.785 30.500 C 29.681 30.775,29.641 107.230,29.698 200.400 L 29.800 369.800 200.000 369.800 L 370.200 369.800 370.200 200.000 L 370.200 30.200 200.088 30.100 C 64.207 30.019,29.937 30.100,29.785 30.500 M130.307 83.695 L 130.415 92.790 128.807 95.436 C 127.923 96.891,127.200 98.145,127.200 98.223 C 127.200 98.301,126.635 99.318,125.944 100.482 C 124.762 102.476,124.380 103.135,122.400 106.600 C 121.960 107.370,121.240 108.630,120.800 109.400 C 120.360 110.170,119.640 111.430,119.200 112.200 C 118.760 112.970,118.040 114.230,117.600 115.000 C 117.160 115.770,116.440 117.030,116.000 117.800 C 115.560 118.570,114.840 119.830,114.400 120.600 C 113.960 121.370,113.221 122.675,112.757 123.500 C 112.294 124.325,111.780 125.180,111.615 125.400 C 111.450 125.620,110.772 126.790,110.108 128.000 C 109.443 129.210,104.647 137.623,99.450 146.695 C 94.252 155.767,90.000 163.371,90.000 163.591 C 90.000 163.854,97.445 164.029,111.500 164.097 L 133.000 164.200 133.000 173.600 L 133.000 183.000 99.200 183.000 L 65.400 183.000 65.292 174.653 L 65.183 166.306 66.661 163.653 C 68.502 160.347,69.379 158.787,70.400 157.000 C 70.840 156.230,71.560 154.970,72.000 154.200 C 72.440 153.430,73.160 152.170,73.600 151.400 C 74.040 150.630,74.787 149.325,75.259 148.500 C 75.731 147.675,76.657 146.010,77.317 144.800 C 77.976 143.590,78.650 142.420,78.816 142.200 C 78.981 141.980,79.613 140.900,80.219 139.800 C 80.826 138.700,84.507 132.220,88.400 125.400 C 92.293 118.580,95.930 112.190,96.483 111.200 C 97.414 109.530,97.820 108.815,100.000 105.000 C 100.440 104.230,101.160 102.970,101.600 102.200 C 102.040 101.430,102.790 100.125,103.268 99.300 C 103.745 98.475,104.553 96.990,105.064 96.000 L 105.993 94.200 87.096 94.000 C 76.703 93.890,67.975 93.654,67.700 93.476 C 66.997 93.021,66.981 75.579,67.682 74.878 C 68.052 74.508,75.389 74.419,99.182 74.498 L 130.200 74.600 130.307 83.695 M166.303 96.504 L 166.407 118.408 185.703 118.304 L 205.000 118.200 205.200 96.400 L 205.400 74.600 215.200 74.600 L 225.000 74.600 225.101 128.900 L 225.203 183.200 215.201 183.200 L 205.200 183.200 205.200 161.033 C 205.200 148.841,205.091 138.581,204.957 138.233 C 204.740 137.668,202.657 137.600,185.557 137.600 L 166.400 137.600 166.400 160.400 L 166.400 183.200 156.400 183.200 L 146.400 183.200 146.400 129.067 C 146.400 99.293,146.523 74.810,146.674 74.660 C 146.824 74.509,151.279 74.434,156.574 74.493 L 166.200 74.600 166.303 96.504 M258.473 75.100 C 258.801 75.485,259.664 77.060,260.390 78.600 C 261.115 80.140,263.014 84.100,264.608 87.400 C 266.203 90.700,268.677 95.830,270.105 98.800 C 274.709 108.369,278.435 116.109,280.262 119.900 C 282.199 123.916,282.706 124.284,283.572 122.300 C 283.885 121.585,285.524 118.120,287.216 114.600 C 288.908 111.080,291.306 106.085,292.546 103.500 C 293.786 100.915,295.814 96.685,297.054 94.100 C 298.294 91.515,300.724 86.462,302.454 82.872 C 304.184 79.281,305.600 76.235,305.600 76.103 C 305.600 74.558,306.682 74.400,317.238 74.400 C 328.904 74.400,328.468 74.249,326.660 77.664 C 325.223 80.376,321.779 86.976,317.403 95.400 C 315.918 98.260,313.756 102.400,312.600 104.600 C 311.444 106.800,309.191 111.120,307.594 114.200 C 305.997 117.280,303.930 121.240,303.001 123.000 C 302.072 124.760,299.821 129.080,297.999 132.600 C 296.178 136.120,294.218 139.810,293.644 140.800 L 292.600 142.600 292.486 162.900 L 292.372 183.200 282.386 183.200 L 272.400 183.200 272.400 163.282 L 272.400 143.364 270.559 139.782 C 268.187 135.166,263.679 126.497,261.000 121.400 C 259.844 119.200,257.683 115.060,256.199 112.200 C 254.715 109.340,252.555 105.200,251.399 103.000 C 250.243 100.800,248.106 96.706,246.649 93.902 C 245.193 91.099,242.707 86.329,241.126 83.302 C 237.173 75.738,236.847 75.048,237.060 74.702 C 237.506 73.982,257.842 74.360,258.473 75.100 M92.703 247.900 C 92.760 260.495,92.963 270.800,93.153 270.800 C 93.344 270.800,94.468 269.430,95.650 267.757 C 96.833 266.083,98.477 263.788,99.304 262.657 C 100.131 261.525,101.698 259.340,102.787 257.800 C 103.875 256.260,107.301 251.490,110.400 247.200 C 113.499 242.910,116.925 238.140,118.013 236.600 C 119.102 235.060,120.669 232.876,121.496 231.747 C 122.323 230.618,123.610 228.818,124.356 227.747 C 125.101 226.676,125.991 225.575,126.332 225.300 C 127.036 224.733,149.800 224.553,150.145 225.111 C 150.251 225.283,149.310 226.768,148.055 228.411 C 146.799 230.055,144.260 233.380,142.412 235.800 C 140.565 238.220,138.218 241.280,137.198 242.600 C 136.178 243.920,134.187 246.530,132.774 248.400 C 131.361 250.270,130.114 251.890,130.002 252.000 C 129.891 252.110,128.636 253.730,127.214 255.600 C 125.792 257.470,123.800 260.080,122.788 261.400 C 121.775 262.720,119.435 265.780,117.587 268.200 C 108.755 279.766,109.399 277.853,112.811 282.400 C 114.050 284.050,116.624 287.515,118.532 290.100 C 122.775 295.851,127.496 302.240,132.200 308.600 C 134.153 311.240,137.213 315.380,139.002 317.800 C 140.790 320.220,144.087 324.667,146.327 327.682 C 148.567 330.697,150.400 333.262,150.400 333.382 C 150.400 333.502,145.022 333.600,138.449 333.600 L 126.497 333.600 124.919 331.500 C 124.051 330.345,122.049 327.555,120.470 325.300 C 114.002 316.061,111.769 312.891,110.224 310.758 C 109.331 309.525,107.070 306.307,105.200 303.607 C 103.330 300.907,100.990 297.575,100.000 296.202 C 99.010 294.829,97.120 292.159,95.800 290.268 C 94.480 288.377,93.265 286.823,93.100 286.815 C 92.935 286.807,92.800 297.330,92.800 310.200 L 92.800 333.600 82.800 333.600 L 72.800 333.600 72.800 279.467 C 72.800 249.693,72.923 225.210,73.074 225.060 C 73.224 224.909,77.679 224.834,82.974 224.893 L 92.600 225.000 92.703 247.900 M183.901 279.300 L 184.003 333.600 174.001 333.600 L 164.000 333.600 164.000 279.467 C 164.000 249.693,164.123 225.210,164.274 225.060 C 164.424 224.909,168.879 224.834,174.174 224.893 L 183.800 225.000 183.901 279.300 M225.200 247.886 C 225.333 263.114,225.535 270.676,225.802 270.486 C 226.380 270.076,233.041 260.962,241.213 249.400 C 242.302 247.860,243.869 245.666,244.696 244.525 C 245.523 243.383,248.622 239.063,251.582 234.925 C 254.542 230.786,257.422 226.815,257.982 226.100 L 259.000 224.800 270.700 224.800 C 283.035 224.800,283.531 224.879,281.900 226.578 C 281.625 226.865,279.870 229.124,278.000 231.598 C 276.130 234.073,273.790 237.134,272.800 238.400 C 271.810 239.666,269.470 242.726,267.600 245.200 C 265.730 247.674,263.390 250.734,262.400 252.000 C 261.410 253.266,259.070 256.327,257.200 258.802 C 255.330 261.276,253.620 263.503,253.400 263.751 C 253.180 263.998,251.843 265.730,250.428 267.600 C 245.595 273.989,243.884 276.200,243.092 277.080 C 242.143 278.133,242.205 278.326,244.477 281.400 C 245.453 282.720,247.815 285.915,249.726 288.500 C 251.637 291.085,254.697 295.225,256.527 297.700 C 258.357 300.175,261.715 304.720,263.991 307.800 C 268.931 314.488,271.646 318.152,277.773 326.400 C 280.306 329.810,282.383 332.828,282.389 333.106 C 282.398 333.505,279.892 333.590,270.517 333.506 L 258.634 333.400 256.911 331.000 C 255.963 329.680,253.990 326.890,252.526 324.800 C 247.384 317.461,244.783 313.769,242.382 310.400 C 241.050 308.530,238.889 305.470,237.581 303.600 C 236.273 301.730,234.119 298.670,232.796 296.800 C 231.473 294.930,229.447 292.009,228.295 290.309 C 225.023 285.482,225.220 284.251,225.103 310.300 L 225.000 333.400 215.000 333.400 L 205.000 333.400 204.899 279.425 C 204.818 236.510,204.900 225.383,205.299 225.127 C 205.574 224.949,210.120 224.848,215.400 224.902 L 225.000 225.000 225.200 247.886 M315.901 279.300 L 316.003 333.600 306.001 333.600 L 296.000 333.600 296.000 279.467 C 296.000 249.693,296.123 225.210,296.274 225.060 C 296.424 224.909,300.879 224.834,306.174 224.893 L 315.800 225.000 315.901 279.300 " stroke="none" fill="#040404" fill-rule="evenodd"></path></g></svg>